<svg width="48" height="48" viewBox="0 0 48 48" fill="none" xmlns="http://www.w3.org/2000/svg">
<path d="M0 10C0 4.47715 4.47715 0 10 0H38C43.5229 0 48 4.47715 48 10V38C48 43.5229 43.5228 48 38 48H10C4.47715 48 0 43.5228 0 38V10Z" fill="#ECA400"/>
<path d="M21.5 14V16M21.5 32V34M25.5 14V16M25.5 32V34M19.5 16H26C28.2091 16 30 17.7909 30 20C30 22.2091 28.2091 24 26 24H19.5H27C29.2091 24 31 25.7909 31 28C31 30.2091 29.2091 32 27 32H19.5M19.5 16H17.5M19.5 16V32M19.5 32H17.5" stroke="white" stroke-width="2" stroke-linecap="round" stroke-linejoin="round"/>
</svg>
