<svg width="48" height="48" viewBox="0 0 48 48" fill="none" xmlns="http://www.w3.org/2000/svg">
<path d="M0 10C0 4.47715 4.47715 0 10 0H38C43.5229 0 48 4.47715 48 10V38C48 43.5229 43.5228 48 38 48H10C4.47715 48 0 43.5228 0 38V10Z" fill="#ECA400"/>
<path d="M24 29C24 31.7614 26.2386 34 29 34C31.7614 34 34 31.7614 34 29C34 26.2386 31.7614 24 29 24C26.2386 24 24 26.2386 24 29ZM24 29C24 27.8742 24.3721 26.8353 25 25.9995V17M24 29C24 29.8254 24.2 30.604 24.5541 31.2901C23.7117 32.0018 21.7658 32.5 19.5 32.5C16.4624 32.5 14 31.6046 14 30.5V17M25 17C25 18.1046 22.5376 19 19.5 19C16.4624 19 14 18.1046 14 17M25 17C25 15.8954 22.5376 15 19.5 15C16.4624 15 14 15.8954 14 17M14 26C14 27.1046 16.4624 28 19.5 28C21.689 28 23.5793 27.535 24.4646 26.8618M25 21.5C25 22.6046 22.5376 23.5 19.5 23.5C16.4624 23.5 14 22.6046 14 21.5" stroke="white" stroke-width="2" stroke-linecap="round" stroke-linejoin="round"/>
</svg>
