<svg width="31" height="24" viewBox="0 0 31 24" fill="none" xmlns="http://www.w3.org/2000/svg">
<path d="M0.898793 23.5V16.6733C0.898793 14.7348 1.27805 12.7543 2.03658 10.7315C2.7951 8.70881 3.79593 6.80196 5.03906 5.01101C6.2822 3.22005 7.63068 1.72407 9.08452 0.523081L15.0263 4.03125C13.8464 5.88542 12.8771 7.82386 12.1186 9.84659C11.3812 11.8693 11.0124 14.1238 11.0124 16.6101V23.5H0.898793ZM16.8594 23.5V16.6733C16.8594 14.7348 17.2386 12.7543 17.9972 10.7315C18.7557 8.70881 19.7565 6.80196 20.9996 5.01101C22.2428 3.22005 23.5913 1.72407 25.0451 0.523081L30.9869 4.03125C29.8069 5.88542 28.8377 7.82386 28.0792 9.84659C27.3417 11.8693 26.973 14.1238 26.973 16.6101V23.5H16.8594Z" fill="#D0D5DD"/>
</svg>
